<svg version="1" xmlns="http://www.w3.org/2000/svg" width="682.667" height="682.667" viewBox="0 0 512.000000 512.000000"><path d="M0 256v256h512V0H0v256zm138-77.5c5.2.8 12 2.3 15 3.3l5.5 1.9.3 11.6c.1 6.5 0 11.7-.3 11.7-.4 0-3.9-1.5-7.8-3.4-12.3-5.9-29.3-8.1-41.9-5.5-18.7 3.9-33.9 19.5-37.9 38.8-1.7 8.4-.7 26.2 2 34 4.5 13.1 13.4 22.8 24.8 27.1 10.6 4 27.5 3.7 38.5-.7l3.8-1.5V263h-29v-20h52v66.1l-7.2 3.4c-12.9 5.9-23.2 7.9-40.3 8-13 0-16-.3-22.5-2.3-21.6-6.8-36.5-20.8-43.5-40.9-6.7-19.2-5.3-42.7 3.7-61.3 3.4-7 5.7-10.1 13.2-17.5 12.1-12 23-17.7 39.4-20.5 7.7-1.3 22.1-1.1 32.2.5zm129.7 0c9.6 1.8 21.9 7.7 29 14 15.2 13.4 23.6 36.8 21.8 61.2-2.3 33.3-17.4 54.8-45 64-7.2 2.4-9.4 2.7-22.5 2.7-13 0-15.3-.3-22.6-2.7-10.2-3.4-18.3-8.6-25.9-16.8-14.1-15.1-20.2-36.2-17.5-60.7 2.6-24.1 12.5-41.8 29.7-53 13.8-8.8 34.4-12.2 53-8.7zm93.7 23.7c4.1 12.8 12 37.2 17.6 54.3 5.5 17 10.3 32.7 10.6 34.7.7 4 2.4 5.2 2.4 1.8 0-1.1 8.3-27.2 18.5-58l18.6-56h24.8l-2.3 6.2c-1.3 3.5-12.6 35-25.1 70.1l-22.9 63.8-13-.3-13-.3-23.8-67.5c-13.1-37.1-24.1-68.5-24.4-69.8-.6-2.2-.6-2.2 11.9-2.2h12.6l7.5 23.2z"/><path d="M244.3 198.1c-8.1 1.4-14.2 4.7-20.9 11.4-10.8 10.7-15 23.6-14.1 43.5.6 13.3 2.7 20.7 8.6 29.8 9.2 14.2 25.3 20.5 43.1 16.8 14.3-3 25.2-12.9 30.1-27.3 2.1-6 2.4-8.6 2.4-22.8 0-13.7-.3-17-2.2-23-4-12.7-12.5-22.2-23.5-26.3-6.5-2.4-16.6-3.4-23.5-2.1z"/></svg>